<svg id="Слой_1" data-name="Слой 1" xmlns="http://www.w3.org/2000/svg" viewBox="0 0 571.31973 461.20389">
  <defs>
    <style>
      .cls-1 {
        fill: #ffde2a;
      }
    </style>
  </defs>
  <path class="cls-1" d="M91.23845,632.111c-8.11754-5.76889-15.36464-10.47586-22.05216-15.87588a21.46852,21.46852,0,0,1-6.83792-9.38177c-1.59422-4.91882.54708-9.54394,5.06047-12.46432,4.80088-3.10644,9.76808-2.86281,14.41.3743,7.51017,5.23727,14.90094,10.64565,22.354,15.96515,1.59863,1.14095,3.2478,2.21116,5.88225,3.99807-2.68334-10.78824-5.03848-20.38341-7.45948-29.96193-4.02807-15.93669-8.18215-31.84212-12.114-47.80236-1.84727-7.49839,2.13908-14.32359,8.98617-16.059,6.8252-1.72984,13.19427,2.361,15.20618,10.141,4.697,18.16293,9.22609,36.3693,13.83457,54.55517a4.21734,4.21734,0,0,0,1.81244,2.64594c.1285-1.66625.36918-3.33247.3693-4.99871q.00678-88.03039-.02681-176.06078c-.00412-24.84113-.45764-49.69357.14078-74.52043.66285-27.49922,10.74337-51.98829,28.10979-72.93585,39.58988-47.75376,90.86033-68.87022,152.473-62.50516,50.82685,5.25081,91.93772,28.62348,121.037,71.2488a119.16329,119.16329,0,0,1,21.124,68.35334q.06935,121.80563.01735,243.6114v4.99141l.88688.25849c4.31534-9.33048,8.65552-18.64956,12.94061-27.99391,8.20843-17.9,16.35193-35.82976,24.59394-53.71414,2.85633-6.19789,7.33074-9.01387,13.06431-8.55786,5.03035.4,9.81393,3.80866,10.649,8.92644a18.90893,18.90893,0,0,1-1.36385,10.22749c-13.15057,29.27995-26.5805,58.4344-39.9252,87.62723-.43906.96041-.822,1.94649-1.82978,4.346,2.30313-1.43058,3.533-2.10366,4.66623-2.91219q21.03259-15.0064,42.03017-30.06189c4.67985-3.36712,9.58915-4.44612,14.79418-1.57979,8.19522,4.51305,8.54947,15.46889.58108,21.26533-13.42806,9.768-27.00668,19.32884-40.50781,28.99663a84.366,84.366,0,0,0-12.28592,10.16238q4.079,0,8.158.00005,43.31826.005,86.6365.03128c7.48762.0145,12.377,3.9689,13.274,10.38716,1.15,8.22944-4.1831,14.35332-13.00068,14.40279-22.51187.12624-45.02481.066-67.53736.067q-125.75991.00572-251.51981.00335-112.71476.00376-225.42949.00029c-8.16609-.00211-13.76868-5.27509-13.6761-12.633.0901-7.16043,5.60948-12.2444,13.51905-12.2659,17.69985-.048,35.3999-.014,53.09986-.03053C86.86105,632.3807,88.33881,632.2498,91.23845,632.111Zm64.186.04862h5.26812q131.556.00068,263.112.08046c3.89845.00461,5.09194-1.15693,5.03974-5.0017-.18333-13.502-.06952-27.008-.06659-40.51251q.02665-123.63409.024-247.26815c-.01237-19.35514-4.69319-37.61351-15.36585-53.84506-27.91581-42.4558-68.45294-63.09043-118.3113-64.62-42.8814-1.31549-79.94443,14.20791-109.66589,45.47389-19.42465,20.43408-30.10359,44.75136-30.06453,73.46668q.18375,135.0516.03036,270.10365C155.42406,617.16516,155.42445,624.29347,155.42445,632.15962Z" transform="translate(-18.76314 -196.11748)"/>
  <path class="cls-1" d="M304.49967,334.29693c3.77759,0,6.99923-.00074,10.22087.00015,12.88516.00351,25.77089-.06173,38.65531.03708,7.82959.06,12.98137,4.9227,13.13487,12.07924.15854,7.39153-5.01193,12.621-13.0212,12.70371-14.43586.14908-28.874.07445-43.31123.09263-1.67767.00212-3.35535.00029-5.69178.00029,0,2.256-.00011,4.06138,0,5.8668q.00324,58.68282-.00569,117.36563c-.00341,6.12255-3.35643,11.09686-8.36116,12.70821-5.22941,1.68365-11.30927.048-13.98048-4.61765a19.50661,19.50661,0,0,1-2.31869-9.21593c-.16848-27.47592-.08927-54.95335-.089-82.43035.00011-11.64274-.1769-23.28892.068-34.92635.08552-4.06352-1.43692-4.87963-5.1349-4.82708-13.50314.19182-27.01065.07892-40.51653.07311-1.55181-.00067-3.11037.03374-4.65423-.09106-7.019-.56734-12.04179-5.77228-12.03586-12.40888.00614-6.88287,5.18122-12.26334,12.48244-12.35183,14.74565-.17873,29.49875-.27168,44.24.0287,4.671.09517,5.69338-1.46435,5.62378-5.81078-.22856-14.27773-.1137-28.5623-.01516-42.84344.05706-8.271,4.77595-13.40307,12.13256-13.5067,7.36169-.10369,12.54432,5.48642,12.5659,13.71708C304.5291,301.76662,304.49967,317.59388,304.49967,334.29693Z" transform="translate(-18.76314 -196.11748)"/>
</svg>
